# xmcd CD database file
#
# Track frame offsets:
#	150
#	20825
#	41365
#	53319
#	76155
#	90458
#	103196
#	122899
#	134447
#	151127
#	175609
#	207221
#
# Disc length: 3139 seconds
#
# Revision: 0
# Processed by: cddbd v1.5.1PL0 Copyright (c) Steve Scherf et al.
# Submitted via: CDex 1.50beta10
#
DISCID=8d0c410c
DTITLE=Charo - Cuchi-Cuchi
DYEAR=1977
DGENRE=Salsa
TTITLE0=Dance a Little Bit Closer
TTITLE1=Let's Spend the Night Together
TTITLE2=Borriquito
TTITLE3=More of You
TTITLE4=El Reloj
TTITLE5=Speedy Gonzalez
TTITLE6=Cuchi-Cuchi
TTITLE7=Cookie Jar
TTITLE8=You're Just the Right Size
TTITLE9=Only You (Can Make My Empty Life Worthwhile)
TTITLE10=Cuchi-Cuchi (Extended Version)
TTITLE11=Dance a Little Bit Closer (Extended Version)
EXTD=YEAR: 1977
EXTT0=
EXTT1=
EXTT2=
EXTT3=
EXTT4=
EXTT5=
EXTT6=
EXTT7=
EXTT8=
EXTT9=
EXTT10=
EXTT11=
PLAYORDER=
